<svg version="1.1" id="Layer_1" xmlns="http://www.w3.org/2000/svg" xmlns:xlink="http://www.w3.org/1999/xlink" x="0px" y="0px"
	 width="100%" viewBox="0 0 840 121" enable-background="new 0 0 840 121" xml:space="preserve">
<path fill="#FEFDFB" opacity="1.000000" stroke="none" 
	d="
M809.000000,122.000000 
	C539.333313,122.000000 270.166656,122.000000 1.000000,122.000000 
	C1.000000,81.666664 1.000000,41.333332 1.000000,1.000000 
	C281.000000,1.000000 561.000000,1.000000 841.000000,1.000000 
	C841.000000,41.333332 841.000000,81.666664 841.000000,122.000000 
	C830.500000,122.000000 820.000000,122.000000 809.000000,122.000000 
M142.744156,97.272629 
	C149.268234,97.932152 155.792328,98.591675 161.500717,99.168739 
	C163.355667,95.502312 164.756287,92.733887 166.620224,90.530373 
	C167.128586,92.374496 167.636963,94.218620 168.115753,95.955467 
	C170.676651,95.672386 172.646545,95.454636 174.787155,96.032921 
	C176.119736,97.009972 177.498993,98.873093 178.776581,98.805817 
	C183.507217,98.556671 188.204300,97.670662 193.128265,97.805626 
	C193.273224,99.670815 193.418167,101.535995 193.632156,104.289474 
	C196.197800,102.107697 198.111481,100.480324 200.535782,99.476143 
	C200.804108,101.969498 201.072418,104.462845 201.398010,107.488434 
	C207.076797,104.260956 210.368805,100.107155 212.110184,94.740166 
	C214.520981,87.310112 210.520294,82.142570 201.889313,81.827972 
	C198.877335,79.134300 195.497192,78.815208 191.511841,79.575020 
	C188.563126,69.426262 185.753387,59.234398 182.623337,49.141880 
	C179.942581,40.498119 182.090820,42.101498 172.856003,41.587852 
	C172.822571,41.194954 172.789139,40.802059 173.455856,40.119431 
	C179.244263,36.597717 185.032654,33.076008 191.164734,29.345207 
	C188.659012,26.138250 186.244125,23.047548 183.592941,19.654411 
	C182.175385,20.643456 181.000885,21.462914 179.240723,21.946939 
	C177.922073,20.360964 176.603409,18.774990 175.010895,16.859634 
	C169.544388,22.055008 164.438934,26.907242 159.274506,31.815525 
	C161.323425,34.028648 162.781952,35.604046 164.279846,37.221981 
	C165.460068,36.653603 166.494278,36.155544 167.968567,36.196381 
	C168.681671,37.086933 169.394791,37.977482 169.227463,39.100170 
	C162.830093,39.493549 156.432724,39.886925 149.926147,40.287014 
	C146.003250,52.991695 142.106491,65.611794 137.514465,78.244965 
	C136.592804,78.190475 135.671127,78.135986 134.608841,77.160759 
	C132.127975,76.646492 129.647125,76.132225 127.279007,74.839622 
	C128.164444,63.710979 129.049866,52.582340 129.968445,41.037098 
	C126.550362,41.037098 123.921211,41.037098 121.163055,40.209599 
	C120.530685,39.659763 119.907547,38.645115 119.264511,38.632339 
	C113.161682,38.511116 107.055466,38.560093 100.773224,38.560093 
	C100.477158,44.152313 100.207077,49.253677 99.359901,53.956650 
	C95.223183,51.642159 91.086456,49.327671 87.003922,46.994400 
	C87.003922,46.994400 87.009552,47.051468 86.913849,46.435905 
	C86.322128,46.337685 85.730408,46.239464 84.403351,45.929123 
	C71.742050,40.014496 59.808132,42.043034 51.822575,51.344128 
	C39.486633,65.712288 44.488148,90.312225 66.702995,95.677605 
	C79.144958,101.499878 89.893051,98.708176 99.351067,90.213081 
	C99.351067,92.008179 99.351067,93.803284 99.351067,95.718414 
	C102.175888,95.718414 104.611450,95.718414 107.076889,96.612831 
	C108.300522,97.411064 109.559250,98.948082 110.742287,98.891861 
	C121.168495,98.396423 131.581238,97.617645 142.744156,97.272629 
M768.560730,100.815559 
	C772.199646,104.094612 776.160156,104.784111 780.259277,101.860268 
	C783.572266,99.497208 784.814148,96.058098 783.415833,92.231895 
	C781.742432,87.652992 778.262878,85.528511 772.772034,85.985069 
	C771.846802,85.295975 770.921631,84.606880 769.977661,83.421074 
	C769.977661,83.421074 769.934326,82.925903 770.862427,82.800926 
	C774.816162,82.800926 778.769897,82.800926 783.245117,82.800926 
	C784.360779,68.344147 785.439453,54.366493 786.569946,39.717422 
	C783.378845,39.717422 780.607605,39.717422 777.685303,38.921303 
	C776.989746,38.266853 776.309570,37.064709 775.596252,37.044788 
	C769.991577,36.888264 764.380554,36.957962 758.577820,36.957962 
	C758.399719,40.907906 758.239441,44.461597 757.477478,47.704361 
	C755.000427,44.644901 752.774292,41.314800 749.917297,38.665043 
	C748.840759,37.666634 746.303040,38.243828 743.873535,37.798592 
	C736.922058,29.804874 731.822998,39.088470 725.343445,39.111980 
	C739.054871,57.949688 741.053101,73.912682 731.374207,87.018463 
	C727.687439,74.402153 724.097473,61.756481 720.280334,49.179752 
	C717.694336,40.659550 719.774902,42.044132 710.262512,41.507046 
	C709.116394,40.707554 707.953918,39.199619 706.826843,39.225624 
	C700.388672,39.374187 693.958862,39.887852 687.442383,40.282578 
	C682.320068,56.937172 677.213928,73.539215 671.597534,89.437637 
	C667.614197,81.509888 666.049011,73.215790 667.881714,64.431015 
	C669.743042,55.509022 674.756958,48.602207 682.786926,42.765224 
	C678.907471,41.324787 675.876648,40.199440 672.936279,39.006481 
	C672.936279,39.006481 672.999695,39.099960 672.571838,38.489376 
	C671.860107,38.332584 671.148315,38.175793 670.500793,37.995037 
	C670.500793,37.995037 670.523987,38.059566 670.088379,37.432213 
	C669.363647,37.328415 668.638855,37.224617 667.191833,37.018600 
	C662.162720,33.832687 657.453979,33.602886 653.703369,38.898129 
	C650.309082,43.690468 647.154480,48.652531 643.332642,53.106346 
	C639.492493,48.329784 634.956787,44.674622 627.968323,43.694824 
	C611.917664,36.682400 601.743896,39.424820 590.925354,52.922768 
	C587.360535,49.048882 583.910950,44.987671 578.025696,44.960480 
	C578.025696,44.960480 578.045105,45.001339 578.072632,44.386650 
	C577.493469,44.279888 576.914246,44.173126 575.606873,43.816666 
	C567.269165,39.398178 558.430908,39.747150 549.460999,40.961388 
	C542.098999,41.957970 542.087891,41.876102 541.348938,48.611858 
	C538.387512,44.471664 535.123535,40.811855 528.778259,40.794720 
	C521.797485,35.774597 515.121948,38.017460 508.483887,42.389122 
	C507.903992,40.527630 507.533234,39.337360 507.098938,37.943226 
	C501.077606,38.339008 495.172729,38.727135 489.109009,39.125702 
	C488.922272,40.501919 488.751190,41.762615 487.840027,42.975609 
	C486.353333,42.999912 484.866669,43.024216 483.262451,42.144455 
	C482.492584,41.448463 481.707184,40.135635 480.955292,40.154549 
	C475.196442,40.299412 469.441406,40.665745 463.693695,41.081326 
	C463.073975,41.126137 462.508698,41.924210 461.323975,42.200989 
	C461.117798,42.199627 460.911621,42.198269 460.652924,41.343235 
	C454.771576,40.432533 448.890198,39.521828 443.232788,38.645802 
	C441.379578,44.627548 439.761810,49.849388 437.946625,54.296787 
	C437.084259,50.982952 436.221893,47.669113 435.292084,44.096172 
	C432.660431,44.437195 430.399170,44.730217 427.755981,44.272072 
	C426.618347,43.467979 425.457245,41.945789 424.347046,41.982029 
	C419.070312,42.154247 413.807495,42.750874 408.162079,43.228352 
	C414.303925,61.039455 420.341827,78.549141 426.353760,95.983543 
	C428.906921,95.983543 430.892944,95.983543 433.082214,96.782890 
	C434.327881,97.522171 435.567200,98.876907 436.820312,98.889793 
	C441.265625,98.935516 445.721924,98.258942 450.161865,98.365303 
	C453.952423,98.456100 455.147003,96.606277 455.956665,93.306274 
	C457.805450,85.771492 460.030090,78.328949 462.854034,71.320007 
	C463.210754,79.456619 463.567444,87.593224 463.925049,95.749687 
	C466.586823,95.749687 468.853638,95.749687 471.167480,96.604668 
	C471.467651,97.319855 471.783569,98.664207 472.065643,98.657150 
	C477.475525,98.521851 482.884155,98.265465 488.281494,97.874542 
	C488.610779,97.850693 488.843994,96.500748 489.773865,95.548485 
	C491.136993,95.492821 492.500092,95.437157 493.824219,96.215118 
	C493.440094,99.006447 495.190582,99.047745 497.200684,98.915817 
	C502.977020,98.536690 508.757050,98.214653 514.687622,97.861122 
	C514.773560,96.477104 514.843872,95.345749 515.830139,94.058403 
	C517.686584,94.116653 519.543030,94.174911 521.312195,95.031891 
	C522.102844,95.768082 522.856812,97.094398 523.690125,97.146317 
	C529.900635,97.533272 536.126282,97.748611 542.348816,97.793892 
	C543.279053,97.800659 544.217834,96.637848 545.926758,95.868958 
	C546.706848,95.920647 547.486877,95.972336 548.285522,96.817101 
	C549.338074,97.525269 550.351501,98.762169 551.450500,98.843567 
	C554.900085,99.099068 558.416809,99.233742 561.844971,98.852402 
	C574.398010,97.456047 585.869202,93.971695 592.819519,82.025604 
	C596.909912,88.032578 602.944092,91.040390 610.241333,93.509842 
	C621.239502,98.756630 635.123352,96.529648 643.985352,85.204453 
	C647.194458,90.513199 650.158508,95.999001 653.779419,101.010201 
	C654.722168,102.314941 657.714050,102.139107 660.275024,103.155594 
	C662.173645,104.299255 664.400696,106.731155 665.909607,106.346413 
	C670.542847,105.165031 674.900818,102.904396 679.446655,101.029984 
	C677.497437,98.349167 676.045044,96.351570 675.549377,94.349648 
	C676.798462,94.595123 678.047485,94.840599 679.245483,95.850807 
	C679.621765,96.312119 679.957520,97.132858 680.380432,97.180580 
	C686.295532,97.847878 692.215820,98.529732 698.154236,98.861786 
	C699.001587,98.909164 700.177490,97.268013 700.803223,96.179489 
	C701.941223,94.199837 702.780273,92.048370 704.112732,90.659912 
	C704.622009,92.365318 705.131287,94.070724 705.681396,95.912987 
	C707.982544,95.669487 710.076294,95.447937 712.292542,95.952850 
	C713.641907,96.955177 714.905701,98.610878 716.361450,98.801605 
	C718.377319,99.065720 720.537659,98.228012 723.390137,98.013321 
	C727.775452,99.801361 732.160706,101.589401 737.124756,103.809692 
	C745.121643,107.385887 745.226013,107.487518 750.680786,101.884193 
	C753.426514,99.063667 755.713623,95.796677 758.558655,93.501083 
	C759.850830,98.493752 763.303650,100.414452 768.560730,100.815559 
M308.994995,41.468723 
	C308.722717,41.214478 308.410797,41.148796 307.331818,41.015293 
	C294.783783,35.297394 284.367065,38.829773 275.256134,51.157421 
	C272.314545,46.697891 268.903259,42.944393 263.017853,42.978657 
	C263.017853,42.978657 263.028717,43.026276 263.044250,42.339722 
	C262.384979,42.209446 261.725708,42.079166 260.386841,41.679882 
	C249.574478,36.351467 238.582794,37.460411 227.449875,40.552727 
	C224.510590,41.369152 223.602936,42.733990 223.643173,45.764317 
	C223.817276,58.876087 223.717804,71.991486 223.717819,85.105568 
	C223.717834,94.015755 223.717819,94.015755 232.413666,97.599930 
	C241.736786,101.713890 251.579666,101.691277 261.351013,100.543503 
	C268.355804,99.720695 275.159485,97.646324 279.028870,90.746544 
	C283.386169,93.148872 287.743500,95.551208 292.592773,98.478882 
	C302.498718,102.852592 313.468323,101.722763 320.407135,95.799324 
	C322.711884,95.871880 325.016632,95.944435 327.313385,96.844421 
	C328.120789,97.550865 328.910828,98.845154 329.738373,98.869598 
	C335.690674,99.045486 341.650574,98.963768 347.894592,98.963768 
	C348.048035,97.251419 348.176941,95.812782 349.119568,94.195312 
	C350.503052,94.198540 351.886536,94.201775 353.199097,94.967506 
	C352.757996,97.764587 354.540436,97.846230 356.533539,97.727577 
	C360.977448,97.463028 365.424988,97.006851 369.866852,97.051079 
	C372.807648,97.080360 373.109558,95.587662 373.750214,93.199486 
	C375.103485,93.206375 376.456787,93.213257 377.735107,93.902313 
	C378.326660,94.885567 378.947113,96.737747 379.505402,96.719208 
	C385.901062,96.506813 392.287231,96.009834 398.869202,95.575974 
	C399.786774,81.080284 401.575012,67.007217 397.841553,53.090141 
	C395.798431,45.474083 391.214813,41.777782 383.172241,40.920780 
	C377.751953,37.402641 372.501953,37.602528 366.830566,40.772121 
	C365.050690,41.766842 362.088104,40.909599 359.731445,40.514645 
	C358.172424,40.253365 356.611115,38.580029 355.254639,38.799347 
	C350.958557,39.493942 346.758270,40.780949 342.209015,41.916752 
	C341.812653,41.671978 340.476654,40.143372 339.150848,40.152164 
	C333.900604,40.186993 328.653534,40.703060 323.245331,41.051014 
	C323.043274,44.454124 322.858246,47.569946 322.284454,50.059277 
	C318.661011,46.026424 315.126831,41.848095 309.011444,41.983459 
	C309.011444,41.983459 309.091553,41.960968 308.994995,41.468723 
z"/>
<path fill="#030301" opacity="1.000000" stroke="none" 
	d="
M200.025162,98.852959 
	C198.111481,100.480324 196.197800,102.107697 193.632156,104.289474 
	C193.418167,101.535995 193.273224,99.670815 193.079056,97.080215 
	C191.685043,94.903671 190.340240,93.452538 188.965363,91.701782 
	C188.329681,90.924553 187.724075,90.446938 187.118484,89.969330 
	C186.997208,90.116692 186.875931,90.264061 186.754669,90.411430 
	C187.157471,90.873604 187.560287,91.335777 187.638306,92.036484 
	C183.081146,93.262299 178.848785,94.249588 174.616425,95.236877 
	C172.646545,95.454636 170.676651,95.672386 168.115753,95.955467 
	C167.636963,94.218620 167.128586,92.374496 166.401352,89.818542 
	C163.581451,84.442673 159.482590,88.275269 156.171600,86.909149 
	C155.366714,90.137199 154.662384,92.961922 153.949234,95.822052 
	C149.769547,95.564644 145.878357,95.324997 141.625748,94.957573 
	C139.176483,94.496040 137.088638,94.162292 134.999146,93.542603 
	C134.882767,92.787956 134.768066,92.319252 134.653351,91.850548 
	C134.486221,91.878250 134.319092,91.905960 134.151962,91.933662 
	C134.100922,92.545876 134.049881,93.158089 133.538208,93.856277 
	C124.400719,94.534302 115.723869,95.126358 107.047012,95.718414 
	C104.611450,95.718414 102.175888,95.718414 99.351067,95.718414 
	C99.351067,93.803284 99.351067,92.008179 99.475891,89.434341 
	C99.712814,77.222084 99.824905,65.788567 99.936996,54.355042 
	C100.207077,49.253677 100.477158,44.152313 100.773224,38.560093 
	C107.055466,38.560093 113.161682,38.511116 119.264511,38.632339 
	C119.907547,38.645115 120.530685,39.659763 121.086296,41.034485 
	C120.118660,53.025196 119.227791,64.191017 118.316086,75.617958 
	C121.620575,75.617958 124.393417,75.617958 127.166267,75.617958 
	C129.647125,76.132225 132.127975,76.646492 134.475555,78.003052 
	C133.917938,82.515541 133.493607,86.185730 133.069260,89.855927 
	C133.716614,89.982384 134.363953,90.108841 135.011292,90.235298 
	C136.077438,86.234161 137.143570,82.233025 138.209717,78.231888 
	C142.106491,65.611794 146.003250,52.991695 149.926147,40.287014 
	C156.432724,39.886925 162.830093,39.493549 169.983109,39.054638 
	C171.411072,39.475792 172.083389,39.942474 172.755707,40.409157 
	C172.789139,40.802059 172.822571,41.194954 172.997101,42.228085 
	C177.386749,57.531033 181.635315,72.193756 185.941040,87.053757 
	C188.213486,84.441429 190.027740,82.355820 191.841995,80.270203 
	C195.497192,78.815208 198.877335,79.134300 202.358475,82.400177 
	C206.335968,89.049881 202.788376,93.882210 200.025162,98.852959 
M163.733429,71.739937 
	C162.944504,68.354362 162.155579,64.968796 161.366653,61.583221 
	C161.025177,61.629200 160.683701,61.675179 160.342224,61.721153 
	C159.466400,65.939430 158.590576,70.157707 157.714737,74.375984 
	C158.144089,74.839241 158.573441,75.302498 159.002777,75.765755 
	C160.629440,74.705383 162.256104,73.645012 163.733429,71.739937 
z"/>
<path fill="#050501" opacity="1.000000" stroke="none" 
	d="
M322.673218,50.685772 
	C322.858246,47.569946 323.043274,44.454124 323.245331,41.051014 
	C328.653534,40.703060 333.900604,40.186993 339.150848,40.152164 
	C340.476654,40.143372 341.812653,41.671978 342.209015,41.916752 
	C346.758270,40.780949 350.958557,39.493942 355.254639,38.799347 
	C356.611115,38.580029 358.172424,40.253365 359.731445,40.514645 
	C362.088104,40.909599 365.050690,41.766842 366.830566,40.772121 
	C372.501953,37.602528 377.751953,37.402641 383.657349,41.353653 
	C386.040527,45.573025 388.798645,49.170895 389.678070,53.180801 
	C392.509277,66.090340 391.048492,79.127983 389.985718,92.516617 
	C385.675232,92.765686 381.742645,92.992920 377.810059,93.220146 
	C376.456787,93.213257 375.103485,93.206375 372.917664,93.199585 
	C371.401062,92.129791 370.085327,91.024918 370.142334,89.996071 
	C370.389557,85.532326 371.353516,81.098717 371.465576,76.639290 
	C371.635681,69.869774 371.447662,63.080849 371.085541,56.317650 
	C371.017609,55.049271 369.421021,53.862736 368.529846,52.638432 
	C367.497955,53.818615 365.885071,54.858665 365.559296,56.209190 
	C364.948395,58.741684 364.947205,61.453011 364.930695,64.091446 
	C364.869904,73.822510 364.906525,83.554184 364.906525,93.565765 
	C360.141632,93.827522 356.705811,94.016258 353.270020,94.205002 
	C351.886536,94.201775 350.503052,94.198540 348.233337,94.176208 
	C346.830231,92.752525 345.833618,91.334244 345.873291,89.945564 
	C346.162079,79.840927 346.775909,69.744835 347.001434,59.639679 
	C347.051910,57.377975 345.972504,55.091061 345.413300,52.815750 
	C344.795654,52.740505 344.177979,52.665260 343.560333,52.590015 
	C342.689331,54.347225 341.414429,56.023102 341.040405,57.880394 
	C340.454926,60.787819 340.373230,63.814030 340.263519,66.796745 
	C339.912079,76.350090 339.645752,85.906555 339.329193,96.016991 
	C334.903259,96.016991 331.112335,96.016991 327.321381,96.016991 
	C325.016632,95.944435 322.711884,95.871880 319.999695,95.328201 
	C319.997131,89.351677 320.402069,83.846275 320.943115,78.024246 
	C321.080444,76.781296 321.081635,75.854980 321.242096,74.562042 
	C321.825317,66.358871 322.249268,58.522320 322.673218,50.685772 
z"/>
<path fill="#030301" opacity="1.000000" stroke="none" 
	d="
M231.962662,97.026619 
	C223.717819,94.015755 223.717834,94.015755 223.717819,85.105568 
	C223.717804,71.991486 223.817276,58.876087 223.643173,45.764317 
	C223.602936,42.733990 224.510590,41.369152 227.449875,40.552727 
	C238.582794,37.460411 249.574478,36.351467 260.888367,42.076756 
	C261.936157,42.657845 262.482452,42.842056 263.028717,43.026276 
	C263.028717,43.026276 263.017853,42.978657 263.021393,43.335114 
	C270.867157,52.543694 269.874817,61.247143 259.941589,68.086563 
	C264.912628,70.362877 268.786835,73.534386 269.954376,79.043243 
	C271.947815,88.448723 266.364807,95.526840 254.729416,96.834137 
	C247.227997,97.676964 239.557419,97.014465 231.962662,97.026619 
M249.302338,80.499672 
	C249.137665,78.379761 249.743942,75.523056 248.606461,74.332840 
	C247.286331,72.951515 244.435776,73.032814 241.939255,72.400688 
	C241.939255,76.353035 241.939255,79.243118 241.939255,83.081688 
	C244.577057,82.303062 246.662476,81.687492 249.302338,80.499672 
M246.491501,64.276833 
	C249.626648,63.104984 251.263916,60.689850 249.583725,57.814331 
	C248.714081,56.325996 245.888321,55.980625 243.946320,55.118866 
	C242.982849,58.210125 242.019394,61.301380 240.832352,65.109970 
	C243.500717,64.840225 244.616714,64.727402 246.491501,64.276833 
z"/>
<path fill="#040401" opacity="1.000000" stroke="none" 
	d="
M493.863220,95.381485 
	C492.500092,95.437157 491.136993,95.492821 488.995575,95.544510 
	C487.646942,93.977310 486.535950,92.395264 486.589630,90.853798 
	C487.145294,74.906540 487.888824,58.965839 488.580139,43.023315 
	C488.751190,41.762615 488.922272,40.501919 489.109009,39.125702 
	C495.172729,38.727135 501.077606,38.339008 507.098938,37.943226 
	C507.533234,39.337360 507.903992,40.527630 508.483887,42.389122 
	C515.121948,38.017460 521.797485,35.774597 529.242676,41.275963 
	C531.868164,47.209957 535.233521,52.515518 535.921997,58.148258 
	C537.100525,67.790909 536.642700,77.637772 536.781128,87.400162 
	C536.812683,89.624130 536.473694,91.853355 536.293640,94.233170 
	C530.962402,94.233170 526.180969,94.233170 521.399475,94.233170 
	C519.543030,94.174911 517.686584,94.116653 515.022461,93.924454 
	C514.501892,90.487068 514.788940,87.183640 515.267212,83.556236 
	C515.706604,75.554214 515.954773,67.876175 516.219482,59.779541 
	C516.127258,58.535484 516.225098,57.604607 515.868408,56.905632 
	C515.022766,55.248405 513.961670,53.701164 512.987671,52.109459 
	C511.426575,53.615803 509.206421,54.855911 508.464264,56.693077 
	C507.439331,59.230267 507.232971,62.213509 507.194305,65.012878 
	C507.057373,74.920113 507.140961,84.830391 507.140961,94.752441 
	C501.815521,95.004738 497.839355,95.193115 493.863220,95.381485 
z"/>
<path fill="#040402" opacity="1.000000" stroke="none" 
	d="
M672.107788,90.141251 
	C677.213928,73.539215 682.320068,56.937172 687.442383,40.282578 
	C693.958862,39.887852 700.388672,39.374187 706.826843,39.225624 
	C707.953918,39.199619 709.116394,40.707554 710.493774,42.214981 
	C715.534058,59.625786 720.343140,76.328659 724.785400,93.219276 
	C720.335754,94.013481 716.252869,94.619942 712.170044,95.226395 
	C710.076294,95.447937 707.982544,95.669487 705.681396,95.912987 
	C705.131287,94.070724 704.622009,92.365318 703.936707,89.917297 
	C701.145081,84.449303 697.071045,88.203491 693.641174,86.961121 
	C692.843079,90.208527 692.148621,93.034157 691.466858,95.808281 
	C687.150146,95.552116 683.223328,95.319092 679.296570,95.086075 
	C678.047485,94.840599 676.798462,94.595123 674.775635,94.244781 
	C670.133545,94.340431 672.453674,91.609375 672.107788,90.141251 
M700.058228,74.897865 
	C700.539978,74.549026 701.480835,74.116364 701.434814,73.863869 
	C700.716736,69.930901 699.870972,66.021233 699.054688,62.106182 
	C698.649963,62.129208 698.245239,62.152237 697.840515,62.175262 
	C696.963257,66.165726 696.086060,70.156189 695.233765,74.033165 
	C695.756042,74.405220 696.004944,74.726044 696.285400,74.756454 
	C697.273560,74.863640 698.272583,74.871193 700.058228,74.897865 
z"/>
<path fill="#050401" opacity="1.000000" stroke="none" 
	d="
M548.266968,96.024025 
	C547.486877,95.972336 546.706848,95.920647 545.139282,95.816513 
	C540.608765,95.898499 540.814636,93.382774 540.871399,90.776756 
	C541.173157,76.922501 541.407043,63.066769 541.664368,49.211548 
	C542.087891,41.876102 542.098999,41.957970 549.460999,40.961388 
	C558.430908,39.747150 567.269165,39.398178 576.103027,44.174099 
	C577.081116,44.688133 577.563110,44.844734 578.045105,45.001335 
	C578.045105,45.001339 578.025696,44.960480 578.079163,45.293625 
	C593.617859,60.308575 587.613464,85.815529 566.743225,92.725044 
	C560.864746,94.671227 554.440735,94.969765 548.266968,96.024025 
M570.407227,66.728233 
	C568.165344,58.415646 566.993835,57.235558 560.655212,57.320248 
	C560.141724,64.815842 559.626160,72.342575 559.045105,80.825378 
	C561.633484,79.686653 564.092957,79.392723 564.994934,78.051476 
	C567.189514,74.787880 568.661255,71.038193 570.407227,66.728233 
z"/>
<path fill="#040401" opacity="1.000000" stroke="none" 
	d="
M292.100800,97.953537 
	C287.743500,95.551208 283.386169,93.148872 278.647156,90.244118 
	C269.539886,77.607994 270.181793,64.840576 275.694763,51.743614 
	C284.367065,38.829773 294.783783,35.297394 307.773682,41.364788 
	C308.461761,41.958912 308.753754,42.041142 309.091553,41.960968 
	C309.091553,41.960968 309.011444,41.983459 309.159363,42.246506 
	C317.799408,50.298622 318.551880,60.208054 317.491882,70.842056 
	C308.149933,72.103088 299.231995,73.306892 289.959076,74.558617 
	C292.160767,79.499580 295.176819,81.708832 300.382782,80.929085 
	C303.618652,79.372093 306.474731,77.771454 309.873169,76.116928 
	C311.138367,76.028725 311.861176,75.994408 312.502502,76.418594 
	C312.305450,78.761383 312.189911,80.645676 311.963623,82.892776 
	C310.270172,95.410370 307.510559,97.905716 295.549896,97.985321 
	C294.400330,97.992973 293.250519,97.964981 292.100800,97.953537 
M291.519592,59.247768 
	C290.967346,60.694027 290.415070,62.140285 289.636566,64.179047 
	C293.059601,63.940983 295.851898,64.251411 298.225494,63.397778 
	C299.716278,62.861637 301.675446,60.429146 301.495941,59.109806 
	C301.116302,56.319366 298.922272,54.352055 295.719696,55.605442 
	C294.282471,56.167934 293.172852,57.567463 291.519592,59.247768 
z"/>
<path fill="#040402" opacity="1.000000" stroke="none" 
	d="
M591.285339,53.582989 
	C601.743896,39.424820 611.917664,36.682400 628.494263,44.125832 
	C635.255737,48.984596 638.280457,55.189701 639.119873,62.645370 
	C640.767334,77.278938 631.086365,94.496941 609.685730,92.956512 
	C602.944092,91.040390 596.909912,88.032578 592.468567,81.474480 
	C586.837036,71.962204 587.340820,62.824966 591.285339,53.582989 
M619.316711,60.305088 
	C616.134399,57.026611 612.508789,56.984890 608.919556,59.307529 
	C605.514343,61.511154 604.424500,66.767754 606.290588,71.090988 
	C608.025635,75.110558 610.994324,77.014824 616.117371,75.800346 
	C622.213257,72.054756 623.329895,67.408272 619.316711,60.305088 
z"/>
<path fill="#040402" opacity="1.000000" stroke="none" 
	d="
M66.295647,95.155251 
	C44.488148,90.312225 39.486633,65.712288 51.822575,51.344128 
	C59.808132,42.043034 71.742050,40.014496 84.909073,46.287628 
	C85.946381,46.781242 86.477966,46.916355 87.009552,47.051468 
	C87.009552,47.051468 87.003922,46.994400 87.030884,47.343182 
	C89.701134,51.629719 93.381783,55.226021 94.809624,59.563854 
	C101.271492,79.195190 88.358711,95.030014 66.295647,95.155251 
M73.246727,78.072311 
	C79.146873,74.512024 80.255066,70.159180 76.621986,63.040997 
	C72.380539,59.472519 68.983887,59.144196 65.551941,61.970947 
	C62.420124,64.550476 61.346001,69.766472 63.450844,73.843666 
	C65.332535,77.488594 68.004547,80.027359 73.246727,78.072311 
z"/>
<path fill="#060503" opacity="1.000000" stroke="none" 
	d="
M438.144012,55.071228 
	C439.761810,49.849388 441.379578,44.627548 443.232788,38.645802 
	C448.890198,39.521828 454.771576,40.432533 460.449921,42.021202 
	C455.528290,60.098080 450.809631,77.496986 446.179901,94.568100 
	C441.387054,95.078140 437.132996,95.530846 432.878967,95.983543 
	C430.892944,95.983543 428.906921,95.983543 426.353760,95.983543 
	C420.341827,78.549141 414.303925,61.039455 408.162079,43.228352 
	C413.807495,42.750874 419.070312,42.154247 424.347046,41.982029 
	C425.457245,41.945789 426.618347,43.467979 427.920929,45.040207 
	C430.178802,54.108841 432.271729,62.409344 434.364624,70.709846 
	C434.872772,70.664711 435.380951,70.619576 435.889099,70.574440 
	C436.640747,65.406700 437.392365,60.238964 438.144012,55.071228 
z"/>
<path fill="#060603" opacity="1.000000" stroke="none" 
	d="
M731.803101,87.707565 
	C741.053101,73.912682 739.054871,57.949688 725.343445,39.111980 
	C731.822998,39.088470 736.922058,29.804874 744.249390,38.307373 
	C760.975891,60.270699 757.602173,87.230072 736.546021,103.377441 
	C732.160706,101.589401 727.775452,99.801361 723.154663,97.627945 
	C724.378845,95.869797 725.838501,94.497017 727.587280,92.993011 
	C729.185303,91.143723 730.494202,89.425652 731.803101,87.707565 
z"/>
<path fill="#060602" opacity="1.000000" stroke="none" 
	d="
M643.894165,53.539764 
	C647.154480,48.652531 650.309082,43.690468 653.703369,38.898129 
	C657.453979,33.602886 662.162720,33.832687 667.789917,37.351601 
	C669.100037,37.809589 669.812012,37.934574 670.523987,38.059563 
	C670.523987,38.059566 670.500793,37.995037 670.656006,38.342358 
	C671.540649,38.826435 672.270203,38.963196 672.999695,39.099960 
	C672.999695,39.099960 672.936279,39.006481 672.872559,39.394333 
	C672.407227,40.385441 672.124878,41.137165 671.586304,41.570076 
	C660.760193,50.271435 656.700684,61.507839 658.928162,75.121239 
	C660.348389,83.801285 664.390320,91.203156 670.564880,97.736664 
	C666.650574,99.514984 663.207703,101.079147 659.764771,102.643311 
	C657.714050,102.139107 654.722168,102.314941 653.779419,101.010201 
	C650.158508,95.999001 647.194458,90.513199 643.822266,84.505226 
	C640.652771,73.693314 640.436218,63.602276 643.894165,53.539764 
z"/>
<path fill="#050502" opacity="1.000000" stroke="none" 
	d="
M471.120422,95.749687 
	C468.853638,95.749687 466.586823,95.749687 463.925049,95.749687 
	C463.567444,87.593224 463.210754,79.456619 462.513000,70.669456 
	C462.087341,60.803558 462.002747,51.588211 461.918152,42.372868 
	C462.508698,41.924210 463.073975,41.126137 463.693695,41.081326 
	C469.441406,40.665745 475.196442,40.299412 480.955292,40.154549 
	C481.707184,40.135635 482.492584,41.448463 483.203644,43.032864 
	C482.253326,60.862724 481.361816,77.804176 480.474945,94.657867 
	C476.982605,95.065475 474.051514,95.407578 471.120422,95.749687 
z"/>
<path fill="#050401" opacity="1.000000" stroke="none" 
	d="
M758.079224,48.015289 
	C758.239441,44.461597 758.399719,40.907906 758.577820,36.957962 
	C764.380554,36.957962 769.991577,36.888264 775.596252,37.044788 
	C776.309570,37.064709 776.989746,38.266853 777.597534,39.713348 
	C776.478149,53.257099 775.446533,66.008812 774.401367,78.928329 
	C771.923462,79.080826 769.787964,79.212242 767.302979,79.245850 
	C765.525391,79.211647 764.097290,79.275253 762.189087,79.250916 
	C761.053406,77.938614 759.900635,76.745163 759.822205,75.484886 
	C759.280151,66.768303 758.961914,58.037800 758.624512,48.991730 
	C758.450195,48.413223 758.223022,48.154755 757.990845,47.944187 
	C757.985718,47.992088 758.079224,48.015289 758.079224,48.015289 
z"/>
<path fill="#F3E40C" opacity="1.000000" stroke="none" 
	d="
M660.019897,102.899452 
	C663.207703,101.079147 666.650574,99.514984 670.564880,97.736664 
	C664.390320,91.203156 660.348389,83.801285 658.928162,75.121239 
	C656.700684,61.507839 660.760193,50.271435 671.586304,41.570076 
	C672.124878,41.137165 672.407227,40.385441 672.827332,39.428139 
	C675.876648,40.199440 678.907471,41.324787 682.786926,42.765224 
	C674.756958,48.602207 669.743042,55.509022 667.881714,64.431015 
	C666.049011,73.215790 667.614197,81.509888 671.852661,89.789444 
	C672.453674,91.609375 670.133545,94.340431 674.297241,94.246948 
	C676.045044,96.351570 677.497437,98.349167 679.446655,101.029984 
	C674.900818,102.904396 670.542847,105.165031 665.909607,106.346413 
	C664.400696,106.731155 662.173645,104.299255 660.019897,102.899452 
z"/>
<path fill="#EFE009" opacity="1.000000" stroke="none" 
	d="
M758.571777,49.311768 
	C758.961914,58.037800 759.280151,66.768303 759.822205,75.484886 
	C759.900635,76.745163 761.053406,77.938614 762.073486,79.652077 
	C762.120972,81.781609 761.803955,83.422043 761.328735,85.337082 
	C760.183044,87.984978 759.195618,90.358276 758.208130,92.731575 
	C755.713623,95.796677 753.426514,99.063667 750.680786,101.884193 
	C745.226013,107.487518 745.121643,107.385887 736.835388,103.593567 
	C757.602173,87.230072 760.975891,60.270699 744.528320,38.459454 
	C746.303040,38.243828 748.840759,37.666634 749.917297,38.665043 
	C752.774292,41.314800 755.000427,44.644901 757.778320,47.859825 
	C758.079224,48.015289 757.985718,47.992088 758.080078,48.181915 
	C758.306946,48.685085 758.439331,48.998425 758.571777,49.311768 
z"/>
<path fill="#F5E60C" opacity="1.000000" stroke="none" 
	d="
M377.772583,93.561234 
	C381.742645,92.992920 385.675232,92.765686 389.985718,92.516617 
	C391.048492,79.127983 392.509277,66.090340 389.678070,53.180801 
	C388.798645,49.170895 386.040527,45.573025 383.999268,41.478569 
	C391.214813,41.777782 395.798431,45.474083 397.841553,53.090141 
	C401.575012,67.007217 399.786774,81.080284 398.869202,95.575974 
	C392.287231,96.009834 385.901062,96.506813 379.505402,96.719208 
	C378.947113,96.737747 378.326660,94.885567 377.772583,93.561234 
z"/>
<path fill="#EFE00B" opacity="1.000000" stroke="none" 
	d="
M275.475464,51.450516 
	C270.181793,64.840576 269.539886,77.607994 278.350555,89.980743 
	C275.159485,97.646324 268.355804,99.720695 261.351013,100.543503 
	C251.579666,101.691277 241.736786,101.713890 232.188171,97.313278 
	C239.557419,97.014465 247.227997,97.676964 254.729416,96.834137 
	C266.364807,95.526840 271.947815,88.448723 269.954376,79.043243 
	C268.786835,73.534386 264.912628,70.362877 259.941589,68.086563 
	C269.874817,61.247143 270.867157,52.543694 262.997070,43.337158 
	C268.903259,42.944393 272.314545,46.697891 275.475464,51.450516 
z"/>
<path fill="#F0E10A" opacity="1.000000" stroke="none" 
	d="
M461.621063,42.286926 
	C462.002747,51.588211 462.087341,60.803558 462.137024,70.433914 
	C460.030090,78.328949 457.805450,85.771492 455.956665,93.306274 
	C455.147003,96.606277 453.952423,98.456100 450.161865,98.365303 
	C445.721924,98.258942 441.265625,98.935516 436.820312,98.889793 
	C435.567200,98.876907 434.327881,97.522171 432.980591,96.383217 
	C437.132996,95.530846 441.387054,95.078140 446.179901,94.568100 
	C450.809631,77.496986 455.528290,60.098080 460.476196,42.448040 
	C460.911621,42.198269 461.117798,42.199627 461.621063,42.286926 
z"/>
<path fill="#EFE10B" opacity="1.000000" stroke="none" 
	d="
M591.105347,53.252876 
	C587.340820,62.824966 586.837036,71.962204 592.193970,81.276825 
	C585.869202,93.971695 574.398010,97.456047 561.844971,98.852402 
	C558.416809,99.233742 554.900085,99.099068 551.450500,98.843567 
	C550.351501,98.762169 549.338074,97.525269 548.276245,96.420563 
	C554.440735,94.969765 560.864746,94.671227 566.743225,92.725044 
	C587.613464,85.815529 593.617859,60.308575 578.056519,45.292942 
	C583.910950,44.987671 587.360535,49.048882 591.105347,53.252876 
z"/>
<path fill="#F4E50F" opacity="1.000000" stroke="none" 
	d="
M767.652466,79.343658 
	C769.787964,79.212242 771.923462,79.080826 774.401367,78.928329 
	C775.446533,66.008812 776.478149,53.257099 777.673035,40.111404 
	C780.607605,39.717422 783.378845,39.717422 786.569946,39.717422 
	C785.439453,54.366493 784.360779,68.344147 783.245117,82.800926 
	C778.769897,82.800926 774.816162,82.800926 770.098267,82.722137 
	C768.773621,81.543442 768.213074,80.443542 767.652466,79.343658 
z"/>
<path fill="#F2E308" opacity="1.000000" stroke="none" 
	d="
M515.075928,83.880219 
	C514.788940,87.183640 514.501892,90.487068 514.564453,94.002441 
	C514.843872,95.345749 514.773560,96.477104 514.687622,97.861122 
	C508.757050,98.214653 502.977020,98.536690 497.200684,98.915817 
	C495.190582,99.047745 493.440094,99.006447 493.843719,95.798302 
	C497.839355,95.193115 501.815521,95.004738 507.140961,94.752441 
	C507.140961,84.830391 507.057373,74.920113 507.194305,65.012878 
	C507.232971,62.213509 507.439331,59.230267 508.464264,56.693077 
	C509.206421,54.855911 511.426575,53.615803 512.987671,52.109459 
	C513.961670,53.701164 515.022766,55.248405 515.868408,56.905632 
	C516.225098,57.604607 516.127258,58.535484 516.126343,60.168034 
	C515.703186,68.610146 515.389587,76.245186 515.075928,83.880219 
z"/>
<path fill="#ECDD0B" opacity="1.000000" stroke="none" 
	d="
M66.499321,95.416428 
	C88.358711,95.030014 101.271492,79.195190 94.809624,59.563854 
	C93.381783,55.226021 89.701134,51.629719 87.003784,47.352570 
	C91.086456,49.327671 95.223183,51.642159 99.648453,54.155846 
	C99.824905,65.788567 99.712814,77.222084 99.466591,88.958450 
	C89.893051,98.708176 79.144958,101.499878 66.499321,95.416428 
z"/>
<path fill="#F3E40B" opacity="1.000000" stroke="none" 
	d="
M731.588623,87.363022 
	C730.494202,89.425652 729.185303,91.143723 727.230652,92.957474 
	C726.107422,93.045944 725.629822,93.038734 725.152283,93.031525 
	C720.343140,76.328659 715.534058,59.625786 710.731689,42.519722 
	C719.774902,42.044132 717.694336,40.659550 720.280334,49.179752 
	C724.097473,61.756481 727.687439,74.402153 731.588623,87.363022 
z"/>
<path fill="#E8D909" opacity="1.000000" stroke="none" 
	d="
M471.143951,96.177177 
	C474.051514,95.407578 476.982605,95.065475 480.474945,94.657867 
	C481.361816,77.804176 482.253326,60.862724 483.262390,43.484894 
	C484.866669,43.024216 486.353333,42.999912 488.210083,42.999462 
	C487.888824,58.965839 487.145294,74.906540 486.589630,90.853798 
	C486.535950,92.395264 487.646942,93.977310 488.669617,95.654167 
	C488.843994,96.500748 488.610779,97.850693 488.281494,97.874542 
	C482.884155,98.265465 477.475525,98.521851 472.065643,98.657150 
	C471.783569,98.664207 471.467651,97.319855 471.143951,96.177177 
z"/>
<path fill="#EDDE0A" opacity="1.000000" stroke="none" 
	d="
M643.613403,53.323055 
	C640.436218,63.602276 640.652771,73.693314 643.648071,84.143173 
	C635.123352,96.529648 621.239502,98.756630 609.963501,93.233177 
	C631.086365,94.496941 640.767334,77.278938 639.119873,62.645370 
	C638.280457,55.189701 635.255737,48.984596 628.807129,44.261208 
	C634.956787,44.674622 639.492493,48.329784 643.613403,53.323055 
z"/>
<path fill="#ECDD07" opacity="1.000000" stroke="none" 
	d="
M327.317383,96.430710 
	C331.112335,96.016991 334.903259,96.016991 339.329193,96.016991 
	C339.645752,85.906555 339.912079,76.350090 340.263519,66.796745 
	C340.373230,63.814030 340.454926,60.787819 341.040405,57.880394 
	C341.414429,56.023102 342.689331,54.347225 343.560333,52.590015 
	C344.177979,52.665260 344.795654,52.740505 345.413300,52.815750 
	C345.972504,55.091061 347.051910,57.377975 347.001434,59.639679 
	C346.775909,69.744835 346.162079,79.840927 345.873291,89.945564 
	C345.833618,91.334244 346.830231,92.752525 347.826477,94.265625 
	C348.176941,95.812782 348.048035,97.251419 347.894592,98.963768 
	C341.650574,98.963768 335.690674,99.045486 329.738373,98.869598 
	C328.910828,98.845154 328.120789,97.550865 327.317383,96.430710 
z"/>
<path fill="#E8DA0B" opacity="1.000000" stroke="none" 
	d="
M541.506653,48.911705 
	C541.407043,63.066769 541.173157,76.922501 540.871399,90.776756 
	C540.814636,93.382774 540.608765,95.898499 544.752258,95.890076 
	C544.217834,96.637848 543.279053,97.800659 542.348816,97.793892 
	C536.126282,97.748611 529.900635,97.533272 523.690125,97.146317 
	C522.856812,97.094398 522.102844,95.768082 521.355835,94.632530 
	C526.180969,94.233170 530.962402,94.233170 536.293640,94.233170 
	C536.473694,91.853355 536.812683,89.624130 536.781128,87.400162 
	C536.642700,77.637772 537.100525,67.790909 535.921997,58.148258 
	C535.233521,52.515518 531.868164,47.209957 529.547058,41.417400 
	C535.123535,40.811855 538.387512,44.471664 541.506653,48.911705 
z"/>
<path fill="#F2E30C" opacity="1.000000" stroke="none" 
	d="
M191.676910,79.922607 
	C190.027740,82.355820 188.213486,84.441429 185.941040,87.053757 
	C181.635315,72.193756 177.386749,57.531033 173.156464,42.479164 
	C182.090820,42.101498 179.942581,40.498119 182.623337,49.141880 
	C185.753387,59.234398 188.563126,69.426262 191.676910,79.922607 
z"/>
<path fill="#EDDE08" opacity="1.000000" stroke="none" 
	d="
M353.234558,94.586258 
	C356.705811,94.016258 360.141632,93.827522 364.906525,93.565765 
	C364.906525,83.554184 364.869904,73.822510 364.930695,64.091446 
	C364.947205,61.453011 364.948395,58.741684 365.559296,56.209190 
	C365.885071,54.858665 367.497955,53.818615 368.529846,52.638432 
	C369.421021,53.862736 371.017609,55.049271 371.085541,56.317650 
	C371.447662,63.080849 371.635681,69.869774 371.465576,76.639290 
	C371.353516,81.098717 370.389557,85.532326 370.142334,89.996071 
	C370.085327,91.024918 371.401062,92.129791 372.519348,93.285858 
	C373.109558,95.587662 372.807648,97.080360 369.866852,97.051079 
	C365.424988,97.006851 360.977448,97.463028 356.533539,97.727577 
	C354.540436,97.846230 352.757996,97.764587 353.234558,94.586258 
z"/>
<path fill="#F3E40D" opacity="1.000000" stroke="none" 
	d="
M127.222641,75.228790 
	C124.393417,75.617958 121.620575,75.617958 118.316086,75.617958 
	C119.227791,64.191017 120.118660,53.025196 121.150795,41.448235 
	C123.921211,41.037098 126.550362,41.037098 129.968445,41.037098 
	C129.049866,52.582340 128.164444,63.710979 127.222641,75.228790 
z"/>
<path fill="#EBDC0A" opacity="1.000000" stroke="none" 
	d="
M312.584015,75.960091 
	C311.861176,75.994408 311.138367,76.028725 309.519104,76.118950 
	C306.242340,76.551819 303.866241,76.958817 301.480438,77.297615 
	C298.902954,77.663620 298.660248,78.933990 300.002991,80.885437 
	C295.176819,81.708832 292.160767,79.499580 289.959076,74.558617 
	C299.231995,73.306892 308.149933,72.103088 317.491882,70.842056 
	C318.551880,60.208054 317.799408,50.298622 309.151093,42.205742 
	C315.126831,41.848095 318.661011,46.026424 322.478821,50.372524 
	C322.249268,58.522320 321.825317,66.358871 320.829224,74.564880 
	C317.699371,75.276253 315.141693,75.618172 312.584015,75.960091 
z"/>
<path fill="#F0E10C" opacity="1.000000" stroke="none" 
	d="
M292.346802,98.216209 
	C293.250519,97.964981 294.400330,97.992973 295.549896,97.985321 
	C307.510559,97.905716 310.270172,95.410370 312.316833,82.762207 
	C315.456207,80.959511 318.131592,79.650192 320.807007,78.340881 
	C320.402069,83.846275 319.997131,89.351677 319.504974,95.286545 
	C313.468323,101.722763 302.498718,102.852592 292.346802,98.216209 
z"/>
<path fill="#080703" opacity="1.000000" stroke="none" 
	d="
M758.383423,93.116333 
	C759.195618,90.358276 760.183044,87.984978 761.763794,85.219879 
	C764.903503,84.524651 767.449951,84.221222 769.996399,83.917786 
	C770.921631,84.606880 771.846802,85.295975 773.156799,86.506226 
	C776.453003,93.675934 775.005127,97.269012 768.200256,100.282265 
	C763.303650,100.414452 759.850830,98.493752 758.383423,93.116333 
z"/>
<path fill="#080805" opacity="1.000000" stroke="none" 
	d="
M167.528488,35.657486 
	C166.494278,36.155544 165.460068,36.653603 164.279846,37.221981 
	C162.781952,35.604046 161.323425,34.028648 159.274506,31.815525 
	C164.438934,26.907242 169.544388,22.055008 175.010895,16.859634 
	C176.603409,18.774990 177.922073,20.360964 179.643860,22.446018 
	C180.824493,24.114004 181.602005,25.282909 182.284927,26.309622 
	C177.151657,29.561430 172.340073,32.609459 167.528488,35.657486 
z"/>
<path fill="#F5E610" opacity="1.000000" stroke="none" 
	d="
M200.280472,99.164551 
	C202.788376,93.882210 206.335968,89.049881 202.675415,82.591270 
	C210.520294,82.142570 214.520981,87.310112 212.110184,94.740166 
	C210.368805,100.107155 207.076797,104.260956 201.398010,107.488434 
	C201.072418,104.462845 200.804108,101.969498 200.280472,99.164551 
z"/>
<path fill="#F3E40E" opacity="1.000000" stroke="none" 
	d="
M167.748535,35.926933 
	C172.340073,32.609459 177.151657,29.561430 182.284927,26.309622 
	C181.602005,25.282909 180.824493,24.114004 179.936676,22.613735 
	C181.000885,21.462914 182.175385,20.643456 183.592941,19.654411 
	C186.244125,23.047548 188.659012,26.138250 191.164734,29.345207 
	C185.032654,33.076008 179.244263,36.597717 173.105774,40.264294 
	C172.083389,39.942474 171.411072,39.475792 170.423325,38.938568 
	C169.394791,37.977482 168.681671,37.086933 167.748535,35.926933 
z"/>
<path fill="#EFE00A" opacity="1.000000" stroke="none" 
	d="
M438.045319,54.684006 
	C437.392365,60.238964 436.640747,65.406700 435.889099,70.574440 
	C435.380951,70.619576 434.872772,70.664711 434.364624,70.709846 
	C432.271729,62.409344 430.178802,54.108841 428.111877,45.415787 
	C430.399170,44.730217 432.660431,44.437195 435.292084,44.096172 
	C436.221893,47.669113 437.084259,50.982952 438.045319,54.684006 
z"/>
<path fill="#F6E711" opacity="1.000000" stroke="none" 
	d="
M768.380493,100.548912 
	C775.005127,97.269012 776.453003,93.675934 773.411133,86.640854 
	C778.262878,85.528511 781.742432,87.652992 783.415833,92.231895 
	C784.814148,96.058098 783.572266,99.497208 780.259277,101.860268 
	C776.160156,104.784111 772.199646,104.094612 768.380493,100.548912 
z"/>
<path fill="#F3E40C" opacity="1.000000" stroke="none" 
	d="
M141.987183,95.085358 
	C145.878357,95.324997 149.769547,95.564644 153.949234,95.822052 
	C154.662384,92.961922 155.366714,90.137199 156.171600,86.909149 
	C159.482590,88.275269 163.581451,84.442673 166.169678,89.536087 
	C164.756287,92.733887 163.355667,95.502312 161.500717,99.168739 
	C155.792328,98.591675 149.268234,97.932152 142.371033,96.791504 
	C141.994324,95.902046 141.990753,95.493698 141.987183,95.085358 
z"/>
<path fill="#F4E50D" opacity="1.000000" stroke="none" 
	d="
M679.270996,95.468437 
	C683.223328,95.319092 687.150146,95.552116 691.466858,95.808281 
	C692.148621,93.034157 692.843079,90.208527 693.641174,86.961121 
	C697.071045,88.203491 701.145081,84.449303 703.752319,89.571640 
	C702.780273,92.048370 701.941223,94.199837 700.803223,96.179489 
	C700.177490,97.268013 699.001587,98.909164 698.154236,98.861786 
	C692.215820,98.529732 686.295532,97.847878 680.380432,97.180580 
	C679.957520,97.132858 679.621765,96.312119 679.270996,95.468437 
z"/>
<path fill="#F1E30F" opacity="1.000000" stroke="none" 
	d="
M141.625748,94.957573 
	C141.990753,95.493698 141.994324,95.902046 141.997940,96.616547 
	C131.581238,97.617645 121.168495,98.396423 110.742287,98.891861 
	C109.559250,98.948082 108.300522,97.411064 107.061951,96.165619 
	C115.723869,95.126358 124.400719,94.534302 133.784988,93.934608 
	C134.661865,93.894165 134.831329,93.861359 135.000809,93.828552 
	C137.088638,94.162292 139.176483,94.496040 141.625748,94.957573 
z"/>
<path fill="#F1E30F" opacity="1.000000" stroke="none" 
	d="
M174.701782,95.634903 
	C178.848785,94.249588 183.081146,93.262299 187.895386,92.092339 
	C188.650009,91.940247 188.822739,91.970825 188.995453,92.001404 
	C190.340240,93.452538 191.685043,94.903671 192.971924,96.689377 
	C188.204300,97.670662 183.507217,98.556671 178.776581,98.805817 
	C177.498993,98.873093 176.119736,97.009972 174.701782,95.634903 
z"/>
<path fill="#EBDC0C" opacity="1.000000" stroke="none" 
	d="
M724.785400,93.219269 
	C725.629822,93.038734 726.107422,93.045944 726.941589,93.088699 
	C725.838501,94.497017 724.378845,95.869797 722.777649,97.552338 
	C720.537659,98.228012 718.377319,99.065720 716.361450,98.801605 
	C714.905701,98.610878 713.641907,96.955177 712.231323,95.589630 
	C716.252869,94.619942 720.335754,94.013481 724.785400,93.219269 
z"/>
<path fill="#D1C511" opacity="1.000000" stroke="none" 
	d="
M137.862091,78.238426 
	C137.143570,82.233025 136.077438,86.234161 135.011292,90.235298 
	C134.363953,90.108841 133.716614,89.982384 133.069260,89.855927 
	C133.493607,86.185730 133.917938,82.515541 134.545868,78.463425 
	C135.671127,78.135986 136.592804,78.190475 137.862091,78.238426 
z"/>
<path fill="#E2DFC9" opacity="1.000000" stroke="none" 
	d="
M769.987061,83.669434 
	C767.449951,84.221222 764.903503,84.524651 761.921997,84.945274 
	C761.803955,83.422043 762.120972,81.781609 762.553589,79.740013 
	C764.097290,79.275253 765.525391,79.211647 767.302979,79.245850 
	C768.213074,80.443542 768.773621,81.543442 769.634277,82.784622 
	C769.934326,82.925903 769.977661,83.421074 769.987061,83.669434 
z"/>
<path fill="#F3E40C" opacity="1.000000" stroke="none" 
	d="
M670.306152,37.745888 
	C669.812012,37.934574 669.100037,37.809589 668.151123,37.402710 
	C668.638855,37.224617 669.363647,37.328415 670.306152,37.745888 
z"/>
<path fill="#F3E40C" opacity="1.000000" stroke="none" 
	d="
M672.785767,38.794666 
	C672.270203,38.963196 671.540649,38.826435 670.623901,38.354340 
	C671.148315,38.175793 671.860107,38.332584 672.785767,38.794666 
z"/>
<path fill="#EFE00B" opacity="1.000000" stroke="none" 
	d="
M263.036499,42.682999 
	C262.482452,42.842056 261.936157,42.657845 261.228149,42.211258 
	C261.725708,42.079166 262.384979,42.209446 263.036499,42.682999 
z"/>
<path fill="#EFE10B" opacity="1.000000" stroke="none" 
	d="
M578.058838,44.693993 
	C577.563110,44.844734 577.081116,44.688133 576.467102,44.298950 
	C576.914246,44.173126 577.493469,44.279888 578.058838,44.693993 
z"/>
<path fill="#ECDD0B" opacity="1.000000" stroke="none" 
	d="
M86.961700,46.743687 
	C86.477966,46.916355 85.946381,46.781242 85.276741,46.393684 
	C85.730408,46.239464 86.322128,46.337685 86.961700,46.743687 
z"/>
<path fill="#EBDC0A" opacity="1.000000" stroke="none" 
	d="
M309.043274,41.714844 
	C308.753754,42.041142 308.461761,41.958912 308.137421,41.492985 
	C308.410797,41.148796 308.722717,41.214478 309.043274,41.714844 
z"/>
<path fill="#D7C904" opacity="1.000000" stroke="none" 
	d="
M163.808105,72.162292 
	C162.256104,73.645012 160.629440,74.705383 159.002777,75.765755 
	C158.573441,75.302498 158.144089,74.839241 157.714737,74.375984 
	C158.590576,70.157707 159.466400,65.939430 160.342224,61.721153 
	C160.683701,61.675179 161.025177,61.629200 161.366653,61.583221 
	C162.155579,64.968796 162.944504,68.354362 163.808105,72.162292 
z"/>
<path fill="#090804" opacity="1.000000" stroke="none" 
	d="
M188.965363,91.701782 
	C188.822739,91.970825 188.650009,91.940247 188.220184,91.853806 
	C187.560287,91.335777 187.157471,90.873604 186.754669,90.411430 
	C186.875931,90.264061 186.997208,90.116692 187.118484,89.969330 
	C187.724075,90.446938 188.329681,90.924553 188.965363,91.701782 
z"/>
<path fill="#040401" opacity="1.000000" stroke="none" 
	d="
M134.999146,93.542603 
	C134.831329,93.861359 134.661865,93.894165 134.245605,93.848633 
	C134.049881,93.158089 134.100922,92.545876 134.151962,91.933662 
	C134.319092,91.905960 134.486221,91.878250 134.653351,91.850548 
	C134.768066,92.319252 134.882767,92.787956 134.999146,93.542603 
z"/>
<path fill="#F3F1E5" opacity="1.000000" stroke="none" 
	d="
M320.943115,78.024239 
	C318.131592,79.650192 315.456207,80.959511 312.427582,82.399399 
	C312.189911,80.645676 312.305450,78.761383 312.502502,76.418594 
	C315.141693,75.618172 317.699371,75.276253 320.669922,74.931503 
	C321.081635,75.854980 321.080444,76.781296 320.943115,78.024239 
z"/>
<path fill="#EFE005" opacity="1.000000" stroke="none" 
	d="
M249.025116,80.785797 
	C246.662476,81.687492 244.577057,82.303062 241.939255,83.081688 
	C241.939255,79.243118 241.939255,76.353035 241.939255,72.400688 
	C244.435776,73.032814 247.286331,72.951515 248.606461,74.332840 
	C249.743942,75.523056 249.137665,78.379761 249.025116,80.785797 
z"/>
<path fill="#EBDC05" opacity="1.000000" stroke="none" 
	d="
M246.112106,64.445709 
	C244.616714,64.727402 243.500717,64.840225 240.832352,65.109970 
	C242.019394,61.301380 242.982849,58.210125 243.946320,55.118866 
	C245.888321,55.980625 248.714081,56.325996 249.583725,57.814331 
	C251.263916,60.689850 249.626648,63.104984 246.112106,64.445709 
z"/>
<path fill="#B3AF75" opacity="1.000000" stroke="none" 
	d="
M515.267212,83.556236 
	C515.389587,76.245186 515.703186,68.610146 516.109863,60.586620 
	C515.954773,67.876175 515.706604,75.554214 515.267212,83.556236 
z"/>
<path fill="#D5C804" opacity="1.000000" stroke="none" 
	d="
M699.662842,74.907196 
	C698.272583,74.871193 697.273560,74.863640 696.285400,74.756454 
	C696.004944,74.726044 695.756042,74.405220 695.233765,74.033165 
	C696.086060,70.156189 696.963257,66.165726 697.840515,62.175262 
	C698.245239,62.152237 698.649963,62.129208 699.054688,62.106182 
	C699.870972,66.021233 700.716736,69.930901 701.434814,73.863869 
	C701.480835,74.116364 700.539978,74.549026 699.662842,74.907196 
z"/>
<path fill="#EEDF0A" opacity="1.000000" stroke="none" 
	d="
M570.415649,67.106270 
	C568.661255,71.038193 567.189514,74.787880 564.994934,78.051476 
	C564.092957,79.392723 561.633484,79.686653 559.045105,80.825378 
	C559.626160,72.342575 560.141724,64.815842 560.655212,57.320248 
	C566.993835,57.235558 568.165344,58.415646 570.415649,67.106270 
z"/>
<path fill="#E8DA06" opacity="1.000000" stroke="none" 
	d="
M291.717072,58.917465 
	C293.172852,57.567463 294.282471,56.167934 295.719696,55.605442 
	C298.922272,54.352055 301.116302,56.319366 301.495941,59.109806 
	C301.675446,60.429146 299.716278,62.861637 298.225494,63.397778 
	C295.851898,64.251411 293.059601,63.940983 289.636566,64.179047 
	C290.415070,62.140285 290.967346,60.694027 291.717072,58.917465 
z"/>
<path fill="#F0EFE3" opacity="1.000000" stroke="none" 
	d="
M300.382782,80.929085 
	C298.660248,78.933990 298.902954,77.663620 301.480438,77.297615 
	C303.866241,76.958817 306.242340,76.551819 308.976746,76.172836 
	C306.474731,77.771454 303.618652,79.372093 300.382782,80.929085 
z"/>
<path fill="#F2E309" opacity="1.000000" stroke="none" 
	d="
M615.483704,75.817856 
	C610.994324,77.014824 608.025635,75.110558 606.290588,71.090988 
	C604.424500,66.767754 605.514343,61.511154 608.919556,59.307529 
	C612.508789,56.984890 616.134399,57.026611 619.174805,60.882172 
	C613.454712,65.120506 612.618896,68.501923 615.483704,75.817856 
z"/>
<path fill="#F5F4EA" opacity="1.000000" stroke="none" 
	d="
M615.800537,75.809097 
	C612.618896,68.501923 613.454712,65.120506 619.349487,61.246727 
	C623.329895,67.408272 622.213257,72.054756 615.800537,75.809097 
z"/>
<path fill="#EEDF09" opacity="1.000000" stroke="none" 
	d="
M72.605240,78.065048 
	C68.004547,80.027359 65.332535,77.488594 63.450844,73.843666 
	C61.346001,69.766472 62.420124,64.550476 65.551941,61.970947 
	C68.983887,59.144196 72.380539,59.472519 76.355530,63.509972 
	C70.633827,67.670525 69.782928,71.110931 72.605240,78.065048 
z"/>
<path fill="#F2F0E6" opacity="1.000000" stroke="none" 
	d="
M72.925980,78.068680 
	C69.782928,71.110931 70.633827,67.670525 76.488693,63.873787 
	C80.255066,70.159180 79.146873,74.512024 72.925980,78.068680 
z"/>
<path fill="#FEFDFB" opacity="1.000000" stroke="none" 
	d="
M758.624512,48.991730 
	C758.439331,48.998425 758.306946,48.685085 758.085205,48.134014 
	C758.223022,48.154755 758.450195,48.413223 758.624512,48.991730 
z"/>
</svg>